# xmcd
#
# Track frame offsets:
#	150
#	18197
#	38324
#	63637
#	91762
#	112826
#	136459
#	155168
#	182966
#	207116
#	236319
#
# Disc length: 3395 seconds
#
# Revision: 1
# Processed by: cddbd v1.5.1PL0 Copyright (c) Steve Scherf et al.
# Submitted via: audiograbber 1.83.01
#
DISCID=840d410b
DTITLE=URBANI ZVUK - Papaya  day and night
DYEAR=1900
DGENRE=
TTITLE0=TRAVELLER - TOCA MI
TTITLE1=STEREO VIBES feat. TONY - LET ME HEAR 'YA
TTITLE2=DJ FRESH JAY feat. MARIO - FLY HIGH
TTITLE3=PLAYONE feat. PAOLA - PAPAYA
TTITLE4=DJ FRESH JAY - WHO 'DA DJ IS
TTITLE5=PLAYONE feat. FRANCISKA - PURE DIVINE
TTITLE6=DENNIZ JAMM - PAPAYA CLUBBIN'
TTITLE7=LUDVIG and STELAR - IF YOU BELIVE
TTITLE8=ZED PROJECT - WATCH ME
TTITLE9=ARCFUSION - TIME IS NOW
TTITLE10=PLAYONE feat. PAOLA - PAPAYA (Radio edit)
EXTD=
EXTT0=
EXTT1=
EXTT2=
EXTT3=
EXTT4=
EXTT5=
EXTT6=
EXTT7=
EXTT8=
EXTT9=
EXTT10=
PLAYORDER=
